<?xml version="1.0" standalone="no"?>
<!DOCTYPE svg PUBLIC "-//W3C//DTD SVG 20010904//EN"
 "http://www.w3.org/TR/2001/REC-SVG-20010904/DTD/svg10.dtd">
<svg version="1.0" xmlns="http://www.w3.org/2000/svg"
 width="260.000000pt" height="260.000000pt" viewBox="0 0 260.000000 260.000000"
 preserveAspectRatio="xMidYMid meet">
<metadata>
Created by potrace 1.14, written by Peter Selinger 2001-2017
</metadata>
<g transform="translate(0.000000,260.000000) scale(0.100000,-0.100000)"
fill="#000000" stroke="none">
<path d="M1194 2291 c-66 -12 -149 -91 -179 -172 -39 -103 -40 -112 -17 -160
11 -24 26 -60 33 -79 8 -19 55 -78 106 -130 94 -97 106 -119 79 -155 -13 -18
-15 -17 -43 14 -28 30 -33 32 -76 26 -38 -6 -55 -17 -109 -69 -66 -65 -118
-141 -118 -172 0 -11 -11 -41 -25 -69 -16 -32 -25 -68 -25 -100 0 -27 -12 -81
-25 -120 -14 -38 -25 -79 -25 -90 0 -11 -7 -31 -15 -45 -8 -14 -23 -43 -33
-65 -11 -22 -44 -66 -74 -98 -51 -54 -58 -58 -89 -53 -78 12 -235 17 -324 11
-87 -7 -99 -10 -139 -41 -50 -38 -62 -71 -51 -141 6 -38 16 -55 63 -100 57
-56 150 -123 170 -123 6 0 32 -11 58 -25 26 -14 59 -25 73 -25 15 0 44 -10 66
-21 68 -37 257 -52 555 -44 140 4 305 6 365 4 194 -7 487 -4 580 5 59 5 108
16 142 32 28 13 63 24 76 24 13 0 45 11 71 25 26 14 52 25 58 25 20 0 113 67
170 123 51 49 57 59 63 109 9 70 -5 100 -63 142 l-44 31 -181 -1 c-100 0 -200
-4 -221 -8 -38 -7 -40 -6 -94 51 -30 32 -63 76 -74 98 -10 22 -25 51 -33 65
-8 14 -15 34 -15 45 0 11 -11 52 -25 90 -13 39 -25 93 -25 120 0 32 -9 68 -25
100 -14 28 -25 58 -25 69 0 31 -52 107 -118 172 -53 53 -69 63 -109 69 -45 6
-48 5 -75 -27 -27 -32 -29 -32 -43 -14 -23 30 -19 74 8 87 32 16 158 159 175
199 8 19 24 55 35 79 17 37 18 50 9 80 -35 118 -73 178 -142 226 -32 22 -50
26 -136 30 -54 2 -117 1 -140 -4z m196 -127 c65 -43 90 -84 90 -146 0 -59 -4
-66 -99 -172 -63 -71 -76 -80 -94 -69 -12 7 -85 88 -144 159 -34 40 -32 125 3
168 74 89 165 112 244 60z m-220 -652 c0 -11 -9 -27 -20 -37 -11 -10 -20 -25
-20 -34 0 -9 -12 -34 -25 -56 -14 -22 -25 -47 -25 -55 0 -9 -9 -34 -21 -55
-11 -22 -27 -71 -35 -110 -7 -38 -21 -99 -29 -135 -16 -66 -13 -144 6 -205 5
-17 13 -63 18 -104 7 -52 16 -80 31 -96 30 -32 24 -71 -10 -67 -13 1 -33 11
-45 21 -11 10 -31 22 -45 26 -14 4 -41 18 -60 31 -19 13 -42 24 -52 24 -24 0
-78 48 -78 70 0 10 7 23 16 31 26 21 84 115 84 135 0 11 9 38 21 59 11 22 25
69 30 105 5 36 18 89 29 118 11 29 20 65 20 80 0 26 66 172 92 202 51 60 118
89 118 52z m348 -23 c46 -44 122 -189 122 -233 0 -14 9 -49 20 -78 11 -29 23
-78 27 -108 3 -30 17 -77 30 -105 12 -27 23 -59 23 -69 0 -20 58 -114 84 -135
9 -8 16 -21 16 -31 0 -22 -54 -70 -78 -70 -10 0 -33 -11 -52 -24 -19 -13 -46
-27 -60 -31 -14 -4 -34 -16 -45 -26 -12 -10 -32 -20 -45 -21 -34 -4 -40 35
-10 67 15 16 24 43 30 87 4 34 12 81 18 103 21 78 23 148 7 215 -9 36 -21 92
-26 125 -6 33 -20 77 -30 97 -10 21 -19 44 -19 52 0 7 -13 40 -30 71 -16 31
-30 63 -30 71 0 8 -9 19 -20 26 -11 7 -20 23 -20 35 0 37 40 29 88 -18z m-183
-49 c5 -19 17 -46 26 -60 9 -14 20 -38 23 -54 4 -17 16 -42 27 -57 10 -15 19
-39 19 -53 0 -15 11 -53 25 -86 23 -54 25 -73 25 -200 0 -117 -3 -149 -20
-188 -10 -26 -24 -66 -30 -89 -6 -24 -14 -43 -19 -43 -4 0 -14 -11 -21 -25 -7
-13 -30 -36 -52 -51 l-38 -27 -40 28 c-22 15 -40 31 -40 36 0 4 -11 20 -24 36
-13 15 -26 44 -30 64 -3 19 -15 53 -26 74 -17 34 -20 59 -20 182 0 131 2 149
25 203 14 33 25 72 25 88 0 16 9 40 19 54 11 13 24 42 30 65 6 22 18 46 26 53
8 7 15 18 15 26 0 7 5 25 10 39 15 39 51 31 65 -15z m-956 -787 c55 -5 64 -9
74 -32 19 -46 38 -61 76 -61 20 0 50 9 66 20 32 21 70 26 80 10 3 -5 25 -14
48 -20 23 -6 53 -19 67 -29 14 -10 42 -23 62 -30 21 -7 41 -17 44 -23 3 -5 25
-18 48 -29 22 -10 48 -23 56 -29 8 -5 28 -15 43 -20 22 -8 28 -15 25 -33 l-3
-22 -190 4 c-145 3 -204 8 -250 21 -33 10 -83 21 -112 25 -29 4 -57 13 -64 21
-6 8 -29 19 -50 24 -22 6 -56 22 -76 35 -20 14 -40 25 -44 25 -19 0 -99 65
-99 80 0 23 28 46 70 58 45 13 54 13 129 5z m1961 -4 c50 -11 80 -34 80 -59 0
-15 -80 -80 -99 -80 -4 0 -24 -11 -44 -25 -20 -13 -54 -29 -76 -35 -21 -5 -44
-16 -50 -24 -7 -8 -35 -17 -64 -21 -29 -4 -79 -15 -112 -25 -46 -13 -105 -18
-250 -21 l-190 -4 -3 22 c-3 17 4 26 25 34 15 6 35 15 43 20 8 5 34 18 56 28
23 11 45 24 48 29 3 6 23 16 44 23 20 6 48 20 62 29 14 10 44 23 67 29 23 6
45 16 48 21 10 16 48 11 80 -10 17 -11 46 -20 66 -20 38 0 57 15 77 62 9 21
19 28 49 31 72 7 98 6 143 -4z"/>
</g>
</svg>
